<svg id="logo" xmlns="http://www.w3.org/2000/svg" viewBox="0 0 256 256"><defs><style>.cls-1{fill:#eee;}.cls-2{fill:#212121;}</style></defs><rect class="cls-1" width="256" height="256"/><path class="cls-2" d="M60.5,203.79l-.78,1.8a.83.83,0,0,0-.06.21c-1.79,7.82-4.25,17.17-6.48,23.64l-1,3.43a1.24,1.24,0,0,1-1.61.83L29,226.05a1.25,1.25,0,0,1-.24-2.24L30,223a.9.9,0,0,0,.19-.15,194.3,194.3,0,0,0,19.09-20.63,1.35,1.35,0,0,0,.15-.26l.82-1.93a1.25,1.25,0,0,1,1.56-.68l7.94,2.76A1.25,1.25,0,0,1,60.5,203.79ZM66,101.35l-2.61,1.49-.14.09c-7.8,6-14.29,10-25.65,15.83l-.09,0-3.78,2.34a1.25,1.25,0,0,1-1.58-.21l-3.32-3.63a1.25,1.25,0,0,1,.14-1.82L32.13,113c4.69-4,9.16-9.38,15-18.08a.64.64,0,0,0,.08-.14l1.42-2.84a1.25,1.25,0,0,1,1.68-.56l15.62,7.81A1.25,1.25,0,0,1,66,101.35Zm4.93-57.83c0-4.63,0-5.11-.93-12a1.25,1.25,0,0,1,1.23-1.42H93a1.25,1.25,0,0,1,1.23,1.41,81.63,81.63,0,0,0-.93,12v1.34H117.7a93.22,93.22,0,0,0,12-.72,1.25,1.25,0,0,1,1.4,1.23v7.5a1.26,1.26,0,0,1-1.4,1.24,88.35,88.35,0,0,0-12-.73H41.31c-4.35.2-5.06.22-10.27.75a1.25,1.25,0,0,1-1.38-1.24V45.38a1.25,1.25,0,0,1,1.41-1.23,96.88,96.88,0,0,0,12,.71H70.88Zm52,35.17a68.17,68.17,0,0,0,.43,10.25,1.25,1.25,0,0,1-1.38,1.41c-2-.24-3.17-.28-4.58-.45H94.08a1.25,1.25,0,0,0-1.25,1.24v18.25c0,6-2.91,9-9.18,9-2.47,0-7.62-.68-15.68-1.8l-5.34-.76a1.24,1.24,0,0,1-1.06-1.06L60.8,109a1.24,1.24,0,0,1,1.41-1.4,43.34,43.34,0,0,0,6.43.66c3.36,0,4.7-1.12,4.7-4V91.13a1.24,1.24,0,0,0-1.24-1.24H52.74a64.15,64.15,0,0,0-10.25.44,1.25,1.25,0,0,1-1.4-1.39c.23-1.91.27-3.18.44-4.58,0,0,0-.09,0-.14V73.09a63.14,63.14,0,0,0-.45-10.28,1.25,1.25,0,0,1,1.38-1.41,81,81,0,0,0,10.27.49h58.91a66.53,66.53,0,0,0,10.29-.45,1.25,1.25,0,0,1,1.4,1.38,83.59,83.59,0,0,0-.49,10.27ZM134.49,116c-2.42,1.61-4.86,3.21-7.4,4.7a1.24,1.24,0,0,0,.64,2.31h61A67.53,67.53,0,0,0,199,122.6a1.24,1.24,0,0,1,1.39,1.4,61.57,61.57,0,0,0-.45,10v18.59a66.64,66.64,0,0,0,.44,10.25,1.27,1.27,0,0,1-1.39,1.41c-2-.24-3.16-.28-4.58-.45H80a1.25,1.25,0,0,0-1.25,1.24v5.13A1.24,1.24,0,0,0,80,171.42H215.81a93.22,93.22,0,0,0,12-.72,1.25,1.25,0,0,1,1.4,1.23v7.5a1.26,1.26,0,0,1-1.4,1.24,88.35,88.35,0,0,0-12-.73H80a1.24,1.24,0,0,0-1.25,1.24v5.35A1.25,1.25,0,0,0,80,187.78H206.85c7.87,0,12.29-.19,17.7-.58a1.25,1.25,0,0,1,1.34,1.24v4.21s0,.07,0,.11c-1.34,14.75-2.68,22.13-5.82,30-3.36,8.51-7.39,10.75-18.81,10.75-6.72,0-13.67-.67-24.87-2.46l-8.7-1a1.25,1.25,0,0,1-1.08-1l-1.14-6.85a1.25,1.25,0,0,1,1.37-1.44,154.85,154.85,0,0,0,18.51.93c7.4,0,9.41-.9,11.87-5.82,2.56-5.32,3.9-9.84,4.6-18.15a1.24,1.24,0,0,0-1.24-1.34h-39l2.18,1.09.13.05a192,192,0,0,1,20,8.23l.14.06,1.72.61a1.24,1.24,0,0,1,.4,2.11l-12.58,10.92a1.24,1.24,0,0,1-1.83-.22l-1.4-2-.09-.11-2-2.19c-4.46-4.46-6.25-6.47-11.34-11.35l-.18-.14-1.89-1.26a1.24,1.24,0,0,1-.11-2l2-1.67a1.24,1.24,0,0,0-.8-2.19H73.12c-8.66,0-11.55,0-19.93.56a1.25,1.25,0,0,1-1.32-1.44c1.12-6.87,1.31-11.08,1.31-21.52v-30a133.33,133.33,0,0,0-1.36-20,1.25,1.25,0,0,1,1.34-1.4c7.37.55,10.67.55,22.42.55h30.28a1.26,1.26,0,0,0,1.17-.8,88.91,88.91,0,0,0,3-10.12s0-.07,0-.11l.21-1.29-.44-.67c-3.78-4.44-5.79-6.46-9.1-10a1,1,0,0,0-.19-.16l-2.45-1.73A1.24,1.24,0,0,1,98,96.24l4.14-3.83a1.25,1.25,0,0,1,1.25-.26l3.73,1.3.09,0c.2,0,.94.25,1.53.44,8.27,2.46,9.4,2.91,15.19,4.92l.07,0,2.48.71a1.24,1.24,0,0,1,.48,2.13l-5.56,4.9a1.24,1.24,0,0,0,.69,2.17l16,1.66a1.27,1.27,0,0,0,1-.38c11.53-12.15,18.28-27.21,20-44.77A1.25,1.25,0,0,0,158,63.9H145.25c-4.35.21-5.06.23-10.27.76a1.25,1.25,0,0,1-1.38-1.24V55.91A1.25,1.25,0,0,1,135,54.68a96.77,96.77,0,0,0,12,.71h11.3a1.24,1.24,0,0,0,1.24-1.24V43.52c0-4.63,0-5.11-.93-12a1.25,1.25,0,0,1,1.24-1.42h21.57a1.25,1.25,0,0,1,1.23,1.41,81.63,81.63,0,0,0-.93,12V54.15A1.25,1.25,0,0,0,183,55.39H203.4a1.25,1.25,0,0,0,1-1.93h0l-.12-.16a161.51,161.51,0,0,0-12.18-11.95,1,1,0,0,0-.16-.12l-2.82-1.88a1.25,1.25,0,0,1-.28-1.82l3.91-4.89a1.26,1.26,0,0,1,1.51-.35l3.3,1.57.12,0,8.19,2.88.08,0c3.54,1.54,4.89,2,8,3.32l.09,0,3.05,1a1.25,1.25,0,0,1,.62,1.91l-7.44,10.32a1.24,1.24,0,0,0,1,2h.48a93.22,93.22,0,0,0,12-.72,1.24,1.24,0,0,1,1.39,1.23v7.5a1.25,1.25,0,0,1-1.39,1.24,88.36,88.36,0,0,0-12-.74h-30a1.25,1.25,0,0,0-1.24,1.16,54,54,0,0,1-1.13,7.64,1.25,1.25,0,0,0,1.23,1.51h11.55a1.25,1.25,0,0,1,1.23,1.41,81.63,81.63,0,0,0-.93,12v7.84c0,4.48,1.12,5.15,9.86,5.15,9.13,0,10.29-.89,11.4-7.94a1.94,1.94,0,0,0,0-.24l-.17-6a1.24,1.24,0,0,1,1.56-1.24l6.59,1.77a1.23,1.23,0,0,1,.92,1.27L222.3,95v.07c0,19.67-1.8,21.46-23.74,21.46-12.77,0-17.7-.67-20.83-2.46-3.36-2-5.15-5.6-5.15-10.3V93.13a1.25,1.25,0,0,0-2.28-.71,80.41,80.41,0,0,1-26.79,23.42l-.11.07-3.73,2.67a1.25,1.25,0,0,1-1.66-.19l-1.9-2.15A1.23,1.23,0,0,0,134.49,116ZM102.79,70H61.6a1.25,1.25,0,0,0-1.25,1.25v9.38a1.24,1.24,0,0,0,1.25,1.24h41.19A1.24,1.24,0,0,0,104,80.58V71.2A1.25,1.25,0,0,0,102.79,70ZM87.23,203l1.08,1.3.08.08A34.12,34.12,0,0,0,91.2,207l.12.11c6.88,7.32,9.79,10.46,13.12,14.9l.08.09,1.52,1.64a1.25,1.25,0,0,1-.55,2L83.55,232.5a1.25,1.25,0,0,1-1.61-1.25l.13-2.59a.89.89,0,0,0,0-.23c-.23-1.78-.68-4.21-1.33-7.5-.67-4-2-9.94-2.88-14a2.31,2.31,0,0,0-.1-.28l-.89-1.76a1.26,1.26,0,0,1,.68-1.73l6.79-2.54a1.24,1.24,0,0,1,1.44.42Zm87.36-65.09V132.8a1.25,1.25,0,0,0-1.24-1.25H80a1.25,1.25,0,0,0-1.25,1.25v5.12A1.25,1.25,0,0,0,80,139.17h93.38A1.25,1.25,0,0,0,174.59,137.92ZM78.72,148.48v5.57A1.25,1.25,0,0,0,80,155.3h93.38a1.25,1.25,0,0,0,1.24-1.25v-5.57a1.25,1.25,0,0,0-1.24-1.25H80A1.25,1.25,0,0,0,78.72,148.48Zm46.59,51.17c1.79,1.34,4,2.69,6.72,4.48a163.43,163.43,0,0,1,13.6,10.47.71.71,0,0,0,.14.1l1.25.81a1.24,1.24,0,0,1-.09,2.15l-18.56,9.66a1.24,1.24,0,0,1-1.8-.88l-.34-1.8a1,1,0,0,0-.08-.26,159.08,159.08,0,0,0-9.51-19.69,1,1,0,0,0-.15-.21l-1.35-1.61a1.23,1.23,0,0,1,.39-1.91l6.36-3.19a1.25,1.25,0,0,1,1.36.16Z"/></svg>